<svg xmlns="http://www.w3.org/2000/svg" width="28" height="28" viewBox="0 0 32 32">
<g fill="none" stroke="#000" stroke-linecap="round" stroke-width="2">
    <path stroke-linejoin="round" d="M15 23c-1.864 0-2.796 0-3.53-.305a4 4 0 0 1-2.166-2.164C9 19.796 9 18.864 9 17v-1c0-2.809 0-4.213.674-5.222a4 4 0 0 1 1.104-1.104C11.787 9 13.19 9 16 9h1.5c1.396 0 2.093 0 2.661.172a4 4 0 0 1 2.667 2.667C23 12.407 23 13.104 23 14.5h0"/>
    <path d="M23.119 18.879 20.997 21m-2.121 2.121L20.997 21m2.122 2.121L20.997 21m0 0-2.121-2.121"/>
    <path stroke-linejoin="round" d="m10.5 21.5 11-11m1.492 4h.01m-8.01 8.5h.01M9 17l8-8"/>
  </g>
</svg>
